<?xml version="1.0" standalone="no"?>
<!DOCTYPE svg PUBLIC "-//W3C//DTD SVG 20010904//EN"
 "http://www.w3.org/TR/2001/REC-SVG-20010904/DTD/svg10.dtd">
<svg version="1.0" xmlns="http://www.w3.org/2000/svg"
 width="600.000000pt" height="600.000000pt" viewBox="0 0 600.000000 600.000000"
 preserveAspectRatio="xMidYMid meet">

<g transform="translate(0.000000,600.000000) scale(0.100000,-0.100000)"
fill="#000000" stroke="none">
<path d="M0 3000 l0 -3000 3000 0 3000 0 0 3000 0 3000 -3000 0 -3000 0 0
-3000z m2384 1528 c19 -574 84 -848 216 -916 53 -27 93 -23 155 13 107 62 284
298 435 578 64 119 101 162 86 101 -11 -47 -189 -400 -259 -515 -171 -282
-362 -485 -511 -541 -71 -27 -182 -22 -249 12 -136 69 -264 274 -332 534 -51
191 -90 497 -102 784 l-6 162 280 0 280 0 7 -212z m1264 186 c255 -127 404
-582 439 -1341 l6 -143 -280 0 -280 0 -7 188 c-17 459 -49 676 -122 829 -58
121 -135 159 -230 112 -115 -55 -305 -302 -459 -594 -57 -110 -77 -136 -83
-111 -7 31 152 355 265 541 162 265 364 480 500 529 21 8 74 15 119 15 67 1
88 -3 132 -25z m-2688 -2107 c0 -285 -1 -281 55 -301 42 -16 199 -24 290 -15
98 9 148 26 159 54 3 9 6 131 6 271 l0 254 100 0 100 0 0 -280 c0 -215 -3
-288 -14 -313 -22 -54 -90 -104 -181 -133 -149 -48 -424 -44 -564 8 -69 26
-135 88 -150 143 -7 25 -11 142 -11 308 l0 267 105 0 105 0 0 -263z m1494 232
c85 -28 148 -84 165 -144 7 -24 11 -146 11 -312 l0 -273 -105 0 -105 0 0 269
c0 302 2 291 -73 312 -65 17 -277 8 -311 -14 l-26 -17 0 -275 0 -275 -105 0
-105 0 0 284 0 284 28 53 c24 47 37 58 92 87 86 43 146 52 320 48 119 -3 157
-8 214 -27z m2436 20 c86 -13 181 -58 213 -100 42 -56 47 -97 47 -381 l0 -268
-105 0 -105 0 -2 271 -3 272 -28 21 c-26 19 -42 21 -176 21 -124 0 -151 -3
-174 -18 l-27 -17 0 -275 0 -275 -105 0 -105 0 0 278 c0 164 4 293 11 315 21
77 109 135 237 157 70 11 248 11 322 -1z m-1930 -379 l0 -370 -105 0 -105 0 0
370 0 370 105 0 105 0 0 -370z m940 285 l0 -85 -305 0 -305 0 -6 -24 c-3 -13
-4 -38 -2 -57 l3 -34 308 -3 307 -2 0 -85 0 -85 -309 0 -309 0 -1 -132 c0 -73
-1 -136 -1 -140 0 -5 -45 -8 -100 -8 l-100 0 0 303 c0 452 -19 435 503 436
l317 1 0 -85z m290 -285 l0 -370 -105 0 -105 0 0 370 0 370 105 0 105 0 0
-370z m1196 -204 c26 -26 34 -42 34 -71 0 -49 -53 -105 -100 -105 -114 0 -154
144 -55 198 40 22 85 14 121 -22z m-4492 -547 c47 -22 59 -108 19 -141 -9 -7
-41 -15 -72 -18 l-56 -5 -3 -52 c-3 -45 -6 -53 -23 -53 -18 0 -19 8 -19 140
l0 140 65 0 c35 0 75 -5 89 -11z m247 -18 c28 -28 29 -34 29 -116 0 -78 -2
-88 -25 -110 -19 -20 -34 -25 -72 -25 -81 1 -103 32 -103 145 0 71 2 79 29
106 23 23 38 29 71 29 33 0 48 -6 71 -29z m239 14 c45 -23 63 -113 40 -197
-15 -54 -41 -68 -127 -68 l-73 0 0 140 0 140 65 0 c39 0 78 -6 95 -15z m280
-5 c0 -18 -7 -20 -70 -20 l-70 0 0 -40 0 -40 60 0 c53 0 60 -2 60 -20 0 -18
-7 -20 -60 -20 l-60 0 0 -40 0 -40 70 0 c63 0 70 -2 70 -20 0 -19 -7 -20 -90
-20 l-90 0 0 140 0 140 90 0 c83 0 90 -1 90 -20z m214 -1 c36 -28 37 -91 2
-122 l-24 -21 29 -58 29 -58 -25 0 c-20 0 -30 11 -55 60 -26 51 -34 59 -55 58
-24 -2 -25 -6 -25 -60 0 -51 -2 -58 -20 -58 -19 0 -20 7 -21 103 0 56 -1 119
-2 140 l-2 37 71 0 c57 0 77 -4 98 -21z m337 -8 c32 -33 36 -58 14 -100 -17
-35 -32 -41 -96 -41 l-49 0 0 -55 c0 -48 -2 -55 -20 -55 -19 0 -20 7 -20 140
l0 140 71 0 c65 0 73 -2 100 -29z m202 -104 c26 -73 47 -136 47 -140 0 -19
-41 -5 -50 18 -9 23 -15 25 -65 25 -50 0 -56 -2 -65 -25 -9 -23 -50 -37 -50
-18 0 4 21 67 48 140 39 110 50 133 67 133 17 0 28 -23 68 -133z m251 112 c36
-28 37 -90 2 -120 l-25 -22 30 -58 29 -59 -25 0 c-20 0 -30 11 -55 60 -26 51
-34 59 -55 58 -24 -2 -25 -6 -25 -60 0 -55 -1 -58 -25 -58 l-25 0 0 140 0 140
74 0 c59 0 78 -4 100 -21z m210 -46 c49 -131 76 -205 76 -209 0 -2 -11 -4 -24
-4 -17 0 -26 7 -30 25 -6 23 -11 25 -65 25 -54 0 -59 -2 -65 -25 -5 -18 -13
-25 -31 -25 l-24 0 36 98 c19 53 42 116 50 140 23 64 46 57 77 -25z m366 47
c0 -17 -7 -20 -40 -20 l-40 0 0 -120 c0 -113 -1 -120 -20 -120 -19 0 -20 7
-20 120 l0 120 -40 0 c-33 0 -40 3 -40 20 0 19 7 20 100 20 93 0 100 -1 100
-20z m72 -68 c-4 -99 7 -137 42 -154 20 -9 30 -8 51 6 24 16 25 20 25 126 l0
110 25 0 c25 0 25 0 25 -95 0 -147 -23 -185 -113 -185 -38 0 -49 5 -71 31 -25
29 -26 37 -26 140 0 106 1 109 23 109 21 0 22 -2 19 -88z m409 -9 l64 -97 3
97 c2 89 4 97 22 97 19 0 20 -8 20 -140 0 -139 0 -140 -22 -140 -18 0 -37 22
-85 97 l-63 98 0 -98 c0 -90 -1 -97 -20 -97 -19 0 -20 7 -20 140 0 130 1 140
19 140 12 0 39 -32 82 -97z m349 77 c0 -18 -7 -20 -65 -20 l-65 0 0 -40 0 -40
55 0 c48 0 55 -2 55 -20 0 -18 -7 -20 -55 -20 l-55 0 0 -40 0 -40 65 0 c58 0
65 -2 65 -20 0 -19 -7 -20 -90 -20 l-90 0 0 140 0 140 90 0 c83 0 90 -1 90
-20z m214 -6 c31 -32 35 -64 6 -64 -11 0 -20 4 -20 9 0 35 -76 55 -99 27 -16
-19 -24 -104 -13 -141 5 -16 20 -36 34 -44 23 -13 29 -13 52 2 16 11 26 27 26
42 0 21 -5 25 -30 25 -23 0 -30 4 -30 20 0 18 7 20 55 20 55 0 55 0 55 -30 0
-42 -24 -96 -48 -109 -12 -6 -41 -11 -65 -11 -38 0 -49 5 -71 31 -23 27 -26
39 -26 111 0 75 2 81 29 109 40 40 106 41 145 3z m247 -3 c27 -27 29 -35 29
-106 0 -113 -22 -144 -103 -145 -38 0 -53 5 -72 25 -23 22 -25 32 -25 110 0
82 1 88 29 116 23 23 38 29 71 29 33 0 48 -6 71 -29z m244 4 c31 -30 33 -65 5
-65 -11 0 -20 4 -20 9 0 19 -32 41 -60 41 -39 0 -50 -23 -50 -109 0 -65 2 -72
25 -87 21 -14 31 -15 51 -6 13 7 27 19 30 27 8 20 44 19 44 0 0 -9 -11 -27
-25 -40 -19 -20 -34 -25 -73 -25 -71 0 -95 29 -100 121 -7 113 24 159 106 159
32 0 49 -6 67 -25z m117 15 c2 -5 2 -68 0 -140 -3 -121 -4 -130 -23 -130 -18
0 -19 8 -19 140 0 131 1 140 19 140 11 0 21 -4 23 -10z m229 -19 c27 -28 29
-34 29 -109 0 -72 -3 -84 -26 -111 -22 -27 -32 -31 -75 -31 -72 0 -99 29 -100
107 -2 105 1 117 32 146 42 39 100 38 140 -2z"/>
<path d="M5290 2283 c-34 -13 -50 -37 -50 -73 0 -53 28 -84 75 -84 46 0 75 31
75 79 0 54 -54 96 -100 78z m54 -29 c19 -7 22 -44 4 -44 -9 0 -9 -3 0 -12 15
-15 16 -48 1 -48 -6 0 -13 9 -16 20 -3 11 -12 20 -19 20 -8 0 -14 -9 -14 -20
0 -11 -7 -20 -15 -20 -11 0 -15 12 -15 48 0 27 3 52 7 55 8 9 46 9 67 1z"/>
<path d="M5300 2225 c0 -8 7 -15 15 -15 8 0 15 7 15 15 0 8 -7 15 -15 15 -8 0
-15 -7 -15 -15z"/>
<path d="M780 1655 l0 -45 39 0 c56 0 71 8 71 39 0 38 -17 51 -67 51 l-43 0 0
-45z"/>
<path d="M1029 1684 c-7 -9 -15 -45 -17 -79 -4 -58 -2 -66 22 -90 19 -19 32
-24 49 -19 36 10 41 21 45 89 3 49 0 71 -12 90 -19 29 -66 34 -87 9z"/>
<path d="M1270 1600 l0 -100 45 0 c55 0 65 15 65 103 0 75 -16 97 -73 97 l-37
0 0 -100z"/>
<path d="M1750 1655 l0 -45 39 0 c42 0 71 20 71 49 0 28 -21 41 -67 41 l-43 0
0 -45z"/>
<path d="M2080 1655 l0 -45 43 0 c47 0 67 13 67 45 0 32 -20 45 -67 45 l-43 0
0 -45z"/>
<path d="M2323 1610 l-22 -60 44 0 44 0 -21 60 c-11 33 -21 60 -21 60 -1 0
-12 -27 -24 -60z"/>
<path d="M2540 1655 l0 -45 39 0 c42 0 71 20 71 49 0 28 -21 41 -67 41 l-43 0
0 -45z"/>
<path d="M2817 1630 c-33 -78 -33 -80 13 -80 41 0 42 1 36 26 -4 15 -13 41
-20 58 l-14 31 -15 -35z"/>
<path d="M4416 1678 c-19 -27 -22 -137 -3 -160 20 -26 52 -30 77 -10 19 15 24
31 27 78 5 75 -11 108 -54 112 -23 2 -35 -3 -47 -20z"/>
<path d="M5007 1682 c-26 -28 -24 -145 3 -172 25 -25 41 -25 71 -1 21 17 24
27 23 89 0 43 -5 77 -13 86 -18 22 -64 20 -84 -2z"/>
</g>
</svg>
