<?xml version="1.0" standalone="no"?>
<!DOCTYPE svg PUBLIC "-//W3C//DTD SVG 20010904//EN"
 "http://www.w3.org/TR/2001/REC-SVG-20010904/DTD/svg10.dtd">
<svg version="1.0" xmlns="http://www.w3.org/2000/svg"
 width="765.000000pt" height="567.000000pt" viewBox="0 0 765.000000 567.000000"
 preserveAspectRatio="xMidYMid meet">

<g transform="translate(0.000000,567.000000) scale(0.100000,-0.100000)"
fill="#000000" stroke="none">
<path d="M2100 5041 c0 -182 46 -698 81 -914 77 -472 210 -803 398 -987 140
-137 292 -178 468 -125 29 9 94 43 144 77 251 168 513 514 767 1016 114 224
182 377 182 410 0 24 -1 25 -20 7 -11 -10 -53 -82 -94 -160 -151 -291 -355
-585 -504 -727 -118 -112 -201 -149 -288 -127 -136 35 -238 239 -288 581 -26
171 -46 426 -51 653 -3 116 -8 247 -11 293 l-6 82 -389 0 -389 0 0 -79z"/>
<path d="M4362 5105 c-134 -38 -289 -155 -446 -336 -171 -198 -320 -430 -487
-754 -111 -217 -189 -392 -189 -426 l0 -22 24 23 c14 12 40 55 59 94 55 117
164 303 258 441 248 366 424 514 568 475 132 -35 234 -238 285 -565 30 -194
66 -734 66 -1002 l0 -43 390 0 390 0 0 98 c0 110 -22 427 -45 642 -65 601
-206 1011 -425 1232 -104 104 -193 148 -312 154 -54 3 -101 -1 -136 -11z"/>
<path d="M610 2067 c0 -436 3 -456 70 -525 106 -110 320 -160 635 -149 184 6
314 34 416 88 70 38 134 106 149 158 6 21 10 194 10 424 l0 387 -140 0 -140 0
0 -361 c0 -240 -4 -367 -11 -381 -28 -53 -201 -84 -409 -75 -182 9 -280 39
-294 90 -3 12 -6 181 -6 375 l0 352 -140 0 -140 0 0 -383z"/>
<path d="M2435 2439 c-71 -11 -159 -36 -198 -56 -45 -23 -107 -83 -130 -127
-21 -40 -22 -52 -25 -453 l-3 -413 146 0 145 0 0 376 c0 223 4 383 10 393 18
35 87 53 226 59 135 5 244 -7 294 -33 48 -25 50 -40 50 -430 l0 -365 140 0
140 0 0 393 c0 446 -1 456 -74 530 -48 50 -125 90 -218 113 -75 19 -411 28
-503 13z"/>
<path d="M6030 2443 c-179 -23 -294 -85 -348 -187 l-27 -51 -3 -407 -3 -408
146 0 145 0 0 379 0 379 30 26 c42 35 81 41 265 41 131 0 169 -3 208 -18 80
-31 77 -14 77 -434 l0 -373 146 0 145 0 -3 398 c-3 393 -3 398 -27 449 -41 91
-119 147 -259 185 -63 17 -113 21 -267 23 -104 2 -206 1 -225 -2z"/>
<path d="M3410 1910 l0 -520 145 0 145 0 0 520 0 520 -145 0 -145 0 0 -520z"/>
<path d="M5200 1910 l0 -520 145 0 145 0 0 520 0 520 -145 0 -145 0 0 -520z"/>
<path d="M4067 2409 c-91 -21 -167 -85 -186 -156 -7 -24 -11 -194 -11 -450 l0
-413 140 0 140 0 2 198 3 197 433 3 432 2 0 115 0 115 -435 0 -435 0 0 73 c0
43 5 78 12 85 9 9 119 12 435 12 l423 0 0 115 0 115 -457 -1 c-252 -1 -475 -5
-496 -10z"/>
<path d="M6996 1660 c-96 -29 -134 -153 -71 -228 34 -40 75 -55 135 -50 144
14 178 200 50 266 -47 23 -67 26 -114 12z m94 -35 c40 -21 60 -53 60 -98 0
-73 -40 -116 -108 -117 -37 0 -50 6 -78 34 -26 26 -34 42 -34 70 0 95 82 151
160 111z"/>
<path d="M7003 1593 c-9 -3 -13 -28 -13 -74 0 -55 3 -69 15 -69 9 0 15 9 15
25 0 18 5 25 20 25 13 0 22 -9 26 -25 4 -16 13 -25 26 -25 15 0 18 4 12 23 -3
12 -11 27 -16 34 -5 7 -5 14 2 18 5 3 10 17 10 31 0 33 -55 55 -97 37z m62
-43 c0 -8 -10 -16 -22 -18 -18 -3 -23 2 -23 18 0 16 5 21 23 18 12 -2 22 -10
22 -18z"/>
<path d="M622 763 l3 -198 28 -3 27 -3 0 80 0 81 60 0 c33 0 76 6 95 14 59 25
82 104 50 166 -24 47 -61 60 -170 60 l-95 0 2 -197z m204 122 c20 -27 17 -69
-7 -91 -15 -13 -36 -19 -77 -19 l-57 0 -3 54 c-5 81 -2 84 69 79 45 -3 65 -10
75 -23z"/>
<path d="M990 922 c-34 -34 -39 -45 -45 -107 -9 -81 6 -178 32 -208 44 -49
130 -61 184 -24 53 35 69 78 69 180 0 145 -39 197 -149 197 -48 0 -57 -3 -91
-38z m135 -18 c30 -12 45 -60 45 -141 0 -87 -13 -122 -52 -141 -23 -10 -33
-10 -62 2 -44 18 -51 42 -50 155 1 79 3 86 28 108 27 23 59 29 91 17z"/>
<path d="M1302 763 l3 -198 96 1 c107 0 137 12 162 62 20 39 29 123 21 194 -6
50 -13 68 -40 97 l-32 36 -106 3 -106 4 2 -199z m172 137 c38 -14 49 -46 49
-143 -1 -78 -3 -91 -24 -113 -19 -20 -32 -24 -81 -24 l-58 0 0 145 0 145 44 0
c25 0 56 -4 70 -10z"/>
<path d="M1660 760 l0 -200 125 0 125 0 0 30 0 30 -95 0 -95 0 0 60 0 60 80 0
c79 0 80 0 80 25 0 25 -1 25 -80 25 l-80 0 0 60 0 60 95 0 c95 0 95 0 95 25
l0 25 -125 0 -125 0 0 -200z"/>
<path d="M1980 760 l0 -200 30 0 30 0 0 85 0 85 38 0 c37 0 38 -1 80 -85 39
-78 44 -85 72 -85 17 0 30 5 30 13 0 6 -18 45 -40 86 l-41 73 37 32 c30 26 37
38 38 73 2 93 -41 123 -179 123 l-95 0 0 -200z m195 125 c14 -13 25 -31 25
-40 0 -9 -11 -27 -25 -40 -20 -21 -34 -25 -80 -25 l-55 0 0 65 0 65 55 0 c46
0 60 -4 80 -25z"/>
<path d="M2450 759 l0 -200 28 3 c27 3 27 4 30 81 l3 77 55 0 c104 0 154 39
154 120 0 89 -46 120 -180 120 l-90 0 0 -201z m180 138 c26 -13 36 -43 26 -82
-7 -27 -50 -45 -107 -45 l-39 0 0 70 0 70 48 0 c26 0 58 -6 72 -13z"/>
<path d="M2845 948 c-2 -7 -34 -93 -70 -191 -36 -98 -65 -183 -65 -188 0 -5
13 -9 30 -9 25 0 31 5 41 40 l12 40 82 0 82 0 12 -40 c10 -35 16 -40 41 -40
17 0 30 4 30 9 0 5 -31 93 -69 197 -64 175 -71 189 -95 192 -15 2 -28 -2 -31
-10z m64 -167 c30 -91 30 -91 -34 -91 -33 0 -55 4 -55 11 0 24 53 159 60 152
4 -4 17 -37 29 -72z"/>
<path d="M3082 763 l3 -198 30 0 30 0 3 83 3 82 34 0 c33 0 36 -4 77 -82 39
-76 46 -83 76 -86 17 -2 32 -1 32 3 0 3 -18 42 -40 86 l-41 80 36 33 c30 29
35 40 35 80 0 36 -6 52 -29 78 l-29 33 -111 3 -111 4 2 -199z m196 131 c15
-10 22 -25 22 -49 0 -46 -29 -65 -97 -65 l-53 0 0 65 0 65 53 0 c31 0 61 -6
75 -16z"/>
<path d="M3522 933 c-5 -15 -37 -103 -71 -195 -33 -91 -61 -169 -61 -172 0 -3
13 -6 29 -6 24 0 31 6 45 40 l16 40 80 0 79 0 12 -40 c11 -34 16 -40 41 -40
16 0 28 5 28 13 0 6 -31 95 -68 197 -63 169 -71 185 -94 188 -20 2 -28 -3 -36
-25z m71 -159 c14 -40 23 -75 20 -78 -9 -9 -113 -7 -113 2 0 20 55 161 60 155
4 -5 19 -40 33 -79z"/>
<path d="M3850 935 c0 -24 3 -25 55 -25 l55 0 0 -175 0 -175 30 0 30 0 0 175
0 175 55 0 c52 0 55 1 55 25 l0 25 -140 0 -140 0 0 -25z"/>
<path d="M4171 806 c4 -137 6 -158 25 -183 44 -60 124 -79 193 -43 61 31 71
64 71 234 l0 146 -30 0 -30 0 0 -144 c0 -138 -1 -146 -24 -172 -18 -22 -32
-28 -59 -27 -20 1 -41 4 -47 8 -29 18 -40 76 -40 205 l0 130 -31 0 -31 0 3
-154z"/>
<path d="M4660 760 l0 -200 30 0 29 0 3 137 3 136 90 -136 c79 -120 93 -137
118 -137 l27 0 0 200 0 200 -30 0 -29 0 -3 -137 -3 -136 -90 136 c-79 120 -93
137 -117 137 l-28 0 0 -200z"/>
<path d="M5050 760 l0 -200 125 0 125 0 0 30 0 30 -95 0 -95 0 0 60 0 60 80 0
c79 0 80 0 80 25 0 25 -1 25 -80 25 l-80 0 0 60 0 60 95 0 c95 0 95 0 95 25
l0 25 -125 0 -125 0 0 -200z"/>
<path d="M5419 945 c-53 -29 -64 -60 -64 -182 0 -97 3 -115 21 -140 31 -42 81
-65 133 -60 82 9 131 70 131 165 l0 52 -75 0 c-73 0 -75 -1 -75 -25 0 -23 4
-25 45 -25 43 0 45 -1 45 -29 0 -45 -39 -85 -84 -85 -57 0 -78 28 -84 112 -8
123 17 182 79 182 41 0 58 -9 75 -41 11 -22 22 -29 45 -29 27 0 30 3 23 23
-12 37 -35 67 -65 83 -35 18 -116 18 -150 -1z"/>
<path d="M5770 947 c-13 -7 -35 -28 -47 -46 -20 -30 -23 -46 -23 -135 0 -118
15 -159 70 -188 66 -35 154 -14 192 46 16 27 18 47 16 149 l-3 119 -37 34
c-33 30 -44 34 -90 34 -29 0 -64 -6 -78 -13z m125 -62 c23 -22 25 -31 25 -122
-1 -65 -5 -104 -14 -115 -19 -26 -62 -39 -90 -28 -45 17 -56 46 -56 148 0 85
2 95 25 117 15 16 36 25 55 25 19 0 40 -9 55 -25z"/>
<path d="M6109 945 c-47 -25 -63 -62 -67 -155 -5 -105 9 -160 48 -194 60 -50
155 -43 204 15 36 43 35 69 -4 69 -18 0 -30 -5 -30 -13 0 -24 -40 -51 -76 -51
-55 0 -76 29 -82 112 -9 127 17 182 84 182 26 0 39 -8 61 -35 29 -37 73 -48
73 -20 0 29 -30 75 -60 90 -36 19 -116 19 -151 0z"/>
<path d="M6390 760 l0 -200 30 0 30 0 0 200 0 200 -30 0 -30 0 0 -200z"/>
<path d="M6589 943 c-52 -32 -64 -68 -64 -185 0 -92 3 -110 21 -135 45 -62
135 -81 195 -40 53 35 69 78 69 180 0 104 -16 148 -62 177 -41 25 -122 26
-159 3z m116 -39 c30 -12 45 -60 45 -141 0 -87 -13 -122 -52 -141 -23 -10 -33
-10 -62 2 -43 18 -51 42 -51 155 1 79 2 85 28 107 28 24 60 30 92 18z"/>
</g>
</svg>
